<svg xmlns="http://www.w3.org/2000/svg" xmlns:xlink="http://www.w3.org/1999/xlink" version="1.1" x="0px" y="0px" viewBox="0 0 120 150" style="enable-background:new 0 0 120 120;" xml:space="preserve"><style type="text/css">
	.st0{fill:none;stroke:#000000;stroke-width:34;stroke-miterlimit:10;}
</style><path class="st0" d="M-2178.2-962.4"/><g><path d="M103.1,39.5c0,0-0.3-1.2-0.4-1.7c-0.1-0.5-0.5-1.9-0.6-1.9C95.2,15.8,72.8,7.8,55.3,10.5c-13,2-22.6,8.4-27.9,18.3   c-1.2,2.3-2.1,4.6-2.7,7.1l-0.4,1.5c0,0,0,0.1,0,0.2l-0.3,1.8c-0.4,3-0.5,6.1-0.1,9.4c0,0.1,0,0.1,0,0.2c0,0.2,0,0.6,0,0.9   c0,1.2-0.3,2.4-0.8,3.5l-7.3,15.4c-0.6,1.3-0.5,2.9,0.3,4.1c0.8,1.2,2.1,2,3.6,2h4v20.1c0,3,2.3,5.3,5.3,5.3l11.6,0.2   c1.2,0,2.3,1.1,2.3,2.3v5.5c0,1.1,0.9,1.9,1.9,1.9h41.9c0.6,0,1.2-0.3,1.6-0.8c0.4-0.5,0.4-1.2,0.2-1.8l-0.3-0.7   c-3.3-8.2-3.8-15.4-1.3-21.1c1.4-3.4,3.4-5.3,4.8-6.6l0.4-0.4C103.2,67.3,107,54.2,103.1,39.5z M89.3,75.9L89,76.2   c-1.4,1.4-3.9,3.8-5.6,7.9c-2.7,6.3-2.5,13.7,0.5,22.1H46.7v-3.6c0-3.4-2.7-6.2-6-6.2L29,96.2c-0.9,0-1.5-0.7-1.5-1.5V73.8   c0-1.6-1.3-3-2.9-3h-4.9c-0.2,0-0.3-0.1-0.4-0.2c-0.1-0.2-0.1-0.3,0-0.5l7.3-15.4c0.8-1.6,1.2-3.3,1.2-5.1c0-0.5,0-1-0.1-1.5   c-0.3-2.9-0.3-5.7,0.1-8.2l0.3-1.7l0.4-1.4c0.6-2.2,1.4-4.3,2.4-6.3c4.7-8.8,13.3-14.5,25.1-16.3c16-2.5,36.4,4.7,42.6,22.8   c0,0,0.4,1.3,0.5,1.7c0.1,0.4,0.4,1.6,0.4,1.6C102.9,53.7,99.5,65.7,89.3,75.9z"/><path d="M90.9,41.3c-0.5,0-1,0.1-1.5,0.3l-5.7-8.2c0.7-0.9,1.1-1.9,1.1-3.1c0-2.8-2.2-5-5-5c-1.7,0-3.2,0.8-4.1,2.1L65,23.8   c0-0.1,0-0.1,0-0.2c0-2.8-2.2-5-5-5s-5,2.2-5,5c0,0.5,0.1,1,0.3,1.5l-10.7,7.3c-0.9-0.7-1.9-1.1-3.1-1.1c-2.8,0-5,2.2-5,5   s2.2,5,5,5c1.7,0,3.2-0.8,4.1-2.1L59,43.8c0,0.1,0,0.1,0,0.2c0,2.8,2.2,5,5,5c0.8,0,1.6-0.2,2.3-0.6l11.7,12.2   c-0.4,0.7-0.7,1.6-0.7,2.5c0,2.8,2.2,5,5,5s5-2.2,5-5c0-1.4-0.6-2.7-1.5-3.6l4.3-8.3c0.3,0.1,0.6,0.1,0.9,0.1c2.8,0,5-2.2,5-5   C95.9,43.6,93.6,41.3,90.9,41.3z M68.8,43c-0.1-0.4-0.2-0.7-0.4-1l8.6-7.5c0.8,0.5,1.7,0.8,2.7,0.8c0.5,0,1-0.1,1.5-0.3l5.7,8.2   c-0.3,0.4-0.6,0.8-0.8,1.3L68.8,43z M74.8,30.1c0,0.1,0,0.1,0,0.2c0,0.7,0.2,1.4,0.5,2.1l-8.6,7.5c-0.6-0.4-1.4-0.7-2.2-0.7   l-2.1-11c0.7-0.4,1.3-0.9,1.8-1.5L74.8,30.1z M46.4,36.5c0-0.1,0-0.1,0-0.2c0-0.5-0.1-1-0.3-1.5l10.7-7.3c0.7,0.6,1.6,1,2.6,1.1   l2.1,11c-0.7,0.4-1.3,0.9-1.8,1.5L46.4,36.5z M83.2,58.2c-0.3-0.1-0.6-0.1-0.9-0.1c-0.8,0-1.6,0.2-2.3,0.6L68.3,46.4   c0.1-0.2,0.2-0.4,0.3-0.6L86,47.3c0.2,1,0.7,1.9,1.4,2.6L83.2,58.2z"/></g><text x="0" y="135" fill="#000000" font-size="5px" font-weight="bold" font-family="'Helvetica Neue', Helvetica, Arial-Unicode, Arial, Sans-serif">Created by Symbolon</text><text x="0" y="140" fill="#000000" font-size="5px" font-weight="bold" font-family="'Helvetica Neue', Helvetica, Arial-Unicode, Arial, Sans-serif">from the Noun Project</text></svg>